# xmcd CD database file
#
# Track frame offsets:
#	150
#	15679
#	33068
#	47293
#	62133
#	87205
#	100992
#	118260
#	136993
#	147914
#	164936
#	180099
#	201553
#
# Disc length: 2850 seconds
#
# Revision: 0
# Processed by: cddbd v1.5.1PL0 Copyright (c) Steve Scherf et al.
# Submitted via: CDex 1.50
#
DISCID=b20b200d
DTITLE=The Phantoms - Box of Wine
DYEAR=2004
DGENRE=Blues
TTITLE0=You Didn't Think About That
TTITLE1=Good, Good Whisky
TTITLE2=Didn't Say Goodbye
TTITLE3=I'm Tired
TTITLE4=Lights Are On But Nobody's Home
TTITLE5=Gone Pecan
TTITLE6=Satisfy Susie
TTITLE7=Games You Can't Play
TTITLE8=Shake Your Money Maker
TTITLE9=Start It Up
TTITLE10=All Your Love
TTITLE11=You Can Leave Your Hat On
TTITLE12=Box of Wine
EXTD=YEAR: 2004
EXTT0=
EXTT1=
EXTT2=
EXTT3=
EXTT4=
EXTT5=
EXTT6=
EXTT7=
EXTT8=
EXTT9=
EXTT10=
EXTT11=
EXTT12=
PLAYORDER=
